<?xml version="1.0" encoding="UTF-8" standalone="no"?>
<!-- Created with Inkscape (http://www.inkscape.org/) -->

<svg
   xmlns:dc="http://purl.org/dc/elements/1.1/"
   xmlns:cc="http://creativecommons.org/ns#"
   xmlns:rdf="http://www.w3.org/1999/02/22-rdf-syntax-ns#"
   xmlns:svg="http://www.w3.org/2000/svg"
   xmlns="http://www.w3.org/2000/svg"
   xmlns:sodipodi="http://sodipodi.sourceforge.net/DTD/sodipodi-0.dtd"
   xmlns:inkscape="http://www.inkscape.org/namespaces/inkscape"
   id="svg2"
   version="1.1"
   inkscape:version="0.48.4 r9939"
   width="321.12659"
   height="382.203"
   sodipodi:docname="logo.svg"
   inkscape:export-filename="/home/anthony/Desktop/doubsing.png"
   inkscape:export-xdpi="7089.8486"
   inkscape:export-ydpi="7089.8486">
  <metadata
     id="metadata8">
    <rdf:RDF>
      <cc:Work
         rdf:about="">
        <dc:format>image/svg+xml</dc:format>
        <dc:type
           rdf:resource="http://purl.org/dc/dcmitype/StillImage" />
        <dc:title />
      </cc:Work>
    </rdf:RDF>
  </metadata>
  <defs
     id="defs6" />
  <sodipodi:namedview
     pagecolor="#ffffff"
     bordercolor="#666666"
     borderopacity="1"
     objecttolerance="10"
     gridtolerance="10"
     guidetolerance="10"
     inkscape:pageopacity="0"
     inkscape:pageshadow="2"
     inkscape:window-width="1215"
     inkscape:window-height="776"
     id="namedview4"
     showgrid="false"
     inkscape:zoom="0.675"
     inkscape:cx="147.45395"
     inkscape:cy="85.501527"
     inkscape:window-x="65"
     inkscape:window-y="24"
     inkscape:window-maximized="1"
     inkscape:current-layer="svg2"
     fit-margin-top="0"
     fit-margin-left="0"
     fit-margin-right="0"
     fit-margin-bottom="0" />
  <path
     style="fill:#776968;fill-opacity:1;stroke:#827372;stroke-width:2.52960968px;stroke-linecap:butt;stroke-linejoin:miter;stroke-opacity:1"
     d="m 46.516505,259.6907 c 0,0 23.890774,26.70145 31.385906,38.41261 7.495158,11.71115 13.116508,32.32277 26.701449,31.85433 13.58494,-0.46845 44.03396,-1.40535 44.03396,-1.40535 0,0 45.90771,-35.6019 52.46598,-43.56549 6.55824,-7.96359 21.5485,-14.99027 31.85433,-58.08734 C 243.26394,183.8024 239.98483,25.936011 206.25669,26.872901 172.52856,27.809791 51.669422,34.836491 39.958264,50.295211 28.247107,65.753941 19.815081,164.12765 19.815081,164.12765 l 2.810675,3.27913 c 0,0 6.089809,13.58494 4.216026,21.08007 -1.873784,7.49516 -1.40535,32.3228 -1.40535,32.3228 0,0 19.674749,24.82767 21.080073,38.88105 z"
     id="path2987"
     inkscape:connector-curvature="0" />
  <path
     style="fill:#000000;fill-opacity:0;stroke:#000000;stroke-width:2.52960968px;stroke-linecap:butt;stroke-linejoin:miter;stroke-opacity:0"
     d="m 297.13528,106.97721 c 0,0 -29.04367,-55.276659 -53.87134,-74.482949 -24.82764,-19.2063 -58.55579,-30.9174596 -91.34702,-30.4490096 -32.79123,0.46844 -61.834893,0 -80.57275,15.4587196 -18.737857,15.45873 -38.412605,9.83738 -55.276655,40.28638 C -0.79655901,88.239361 2.9510073,168.81213 2.9510073,168.81213 c 0,0 14.9902907,69.79849 22.9538837,71.67227 0,0 -0.468459,-13.11651 -0.468459,-36.07036 0,-22.95386 -7.963592,-50.12377 4.216025,-64.17714 12.17959,-14.05339 28.575206,-46.844629 37.944147,-53.402879 9.368916,-6.55825 27.638314,-24.3592 45.439286,-32.79124 17.80096,-8.43203 29.98055,-17.33251 34.19658,-17.80095 4.21602,-0.46845 17.3325,-3.74757 17.3325,-3.74757 0,0 -1.40532,7.02669 -6.08981,10.30581 -4.68445,3.27913 -39.34947,53.40288 -41.69171,65.114029 0,0 34.66504,-49.655299 40.75482,-49.655299 0,0 5.15292,1.40534 -0.46843,9.36893 -5.62135,7.96358 -22.01699,35.601909 -22.95388,47.313069 0,0 -1.40533,11.71116 0.93689,9.36892 0,0 34.19658,-43.097049 37.47571,-49.655299 3.27914,-6.55825 -17.3325,51.529089 -17.3325,51.529089 l 20.61164,-31.854349 1.87378,36.070359 0,15.45873 c 0,0 5.62135,7.49513 10.77427,-2.34222 5.15289,-9.83738 7.49513,-32.79125 7.49513,-32.79125 0,0 2.81067,33.25969 1.40532,37.00725 -1.40532,3.74757 0.46846,31.85434 4.21603,33.25969 3.74756,1.40535 8.90048,-3.27913 14.52183,-3.74756 5.62135,-0.46846 40.2864,48.24995 40.2864,57.15043 0,8.90049 -11.24274,14.52183 -9.83739,26.70146 1.40533,12.17959 3.27914,29.5121 3.74757,31.38588 0.46846,1.87378 0,18.73786 3.74757,22.01699 3.74757,3.27911 24.82767,29.5121 29.51213,-20.61164 4.68446,-50.12377 2.81067,-89.9417 2.81067,-89.9417 z"
     id="path3769"
     inkscape:connector-curvature="0" />
  <path
     style="fill:#000000;fill-opacity:1;stroke:#000000;stroke-width:2.52960968px;stroke-linecap:butt;stroke-linejoin:miter;stroke-opacity:1"
     d="m 221.71541,181.46018 c 0,0 -16.86405,19.67472 -20.14318,25.76453 -3.27913,6.08981 -5.15292,-18.2694 -5.15292,-18.2694 0,0 0,-21.54853 0.46846,-23.89077 0.46843,-2.34222 -2.34224,-52.46597 -2.34224,-52.46597 l -16.86405,38.4126 1.87378,-58.087349 -24.3592,42.160169 15.92715,-55.745109 -37.00725,46.844629 c 0,0 16.39564,-51.529089 21.54853,-57.618889 0,0 -6.08978,-8.90048 -37.00726,41.223269 0,0 -6.08978,6.0898 -4.68445,3.27912 1.40535,-2.81067 36.53882,-65.114029 36.53882,-65.114029 l 3.27911,-10.77426 c 0,0 -69.330058,21.08008 -89.941672,52.93443 -20.611641,31.854339 -38.412606,66.050929 -38.412606,66.050929 0,0 -2.342217,14.52183 -0.468434,19.20629 1.873784,4.68446 -0.936892,49.18685 -0.936892,49.18685 0,0 -14.9902908,-15.45873 -17.8009656,-22.95386 -2.8106747,-7.49513 -6.55824097,-54.80822 -4.2160247,-59.49268 2.3422416,-4.68446 -1.40532469,-59.961119 4.6844579,-63.240239 0,0 19.2063174,-55.27666 61.8349214,-61.83491 42.628605,-6.55825 112.427095,-8.9004796 125.543605,-2.34223 13.11648,6.55825 66.98781,32.79124 75.41984,52.46598 8.43205,19.67474 -20.61162,120.390679 -20.61162,120.390679 z"
     id="path3791"
     inkscape:connector-curvature="0"
     sodipodi:nodetypes="cscsccccccccsccscscsscssscc" />
  <path
     style="fill:none;stroke:#8b8b8b;stroke-width:7.58882952;stroke-linecap:butt;stroke-linejoin:miter;stroke-miterlimit:4;stroke-opacity:1;stroke-dasharray:none"
     d="m 292.8225,212.03105 c 0,0 1.65621,28.15551 -26.16808,44.05511 -27.8243,15.89961 -38.42403,14.90588 -38.42403,14.90588"
     id="path3787"
     inkscape:connector-curvature="0" />
  <path
     style="fill:#000000;fill-opacity:1;stroke:#000000;stroke-width:2.52960968px;stroke-linecap:butt;stroke-linejoin:miter;stroke-opacity:1"
     d="m 229.55535,269.66708 c 0,0 -24.84312,7.61855 -30.14298,6.29359 -5.29986,-1.32498 -16.56206,1.98744 -15.56836,5.96234 0.99374,3.9749 0.99374,8.94351 7.28733,8.28103 6.29359,-0.66248 18.21827,-4.63738 22.85566,-7.2873 4.63738,-2.64994 8.28103,-3.9749 12.91841,-5.29988 4.63738,-1.32496 2.64994,-7.94978 2.64994,-7.94978 z"
     id="path3789"
     inkscape:connector-curvature="0"
     sodipodi:nodetypes="csssssc" />
  <path
     style="fill:#282828;fill-opacity:1;stroke:#242424;stroke-width:2.52960968px;stroke-linecap:butt;stroke-linejoin:miter;stroke-opacity:1"
     d="m 270.96055,105.37126 c 0,0 -1.65622,-21.530699 -20.86823,-40.080219 -19.21201,-18.54953 -50.01747,-50.67995 -83.14162,-51.67368 -33.12415,-0.99373 -79.166722,-1.65621 -85.791543,1.98745 l -7.949804,0 c 0,0 29.811727,-20.8682196 102.022407,-12.2559396 72.21064,8.6122796 121.23439,99.3724586 121.89687,103.0161186 5.63108,1.32497 12.25593,25.5056 20.20573,40.41146 7.94981,14.90587 -4.9686,34.11788 -9.93724,49.35499 -4.96863,15.2371 -18.21827,17.22456 -22.52443,19.87448 -4.30613,2.64995 -13.58089,-1.32496 -13.58089,0.33126 0,1.65621 -4.96864,5.29986 -6.2936,6.29359 -1.32495,0.99373 -12.58719,9.27476 -18.54953,9.27476 -5.96234,0 -21.5307,-8.28103 -25.17435,-59.62348 -3.64365,-51.34244 21.19945,-66.2483 24.84312,-66.91079 3.64365,-0.66248 24.84311,0 24.84311,0 z"
     id="path3775"
     inkscape:connector-curvature="0" />
  <g
     transform="matrix(2.5296098,0,0,2.5296098,-575.6928,-113.50023)"
     style="font-size:8px;font-style:normal;font-weight:normal;line-height:125%;letter-spacing:0px;word-spacing:0px;fill:#000000;fill-opacity:1;stroke:none;font-family:Sans"
     id="flowRoot3793">
    <path
       d="m 241.59863,183.97695 0,7.93652 1.66797,0 c 1.4082,0 2.43815,-0.31901 3.08985,-0.95703 0.65624,-0.63802 0.98436,-1.64518 0.98437,-3.02148 -1e-5,-1.36718 -0.32813,-2.36751 -0.98437,-3.00098 -0.6517,-0.63801 -1.68165,-0.95702 -3.08985,-0.95703 l -1.66797,0 m -1.38086,-1.13477 2.83692,0 c 1.97786,10e-6 3.42935,0.41245 4.35449,1.23731 0.92512,0.82032 1.38769,2.10547 1.38769,3.85547 0,1.75911 -0.46485,3.05111 -1.39453,3.87597 -0.92969,0.82487 -2.37891,1.23731 -4.34765,1.23731 l -2.83692,0 0,-10.20606"
       style="font-size:14px"
       id="path3813"
       inkscape:connector-curvature="0" />
    <path
       d="m 253.90332,186.27382 c -0.67448,1e-5 -1.20769,0.26433 -1.59961,0.79297 -0.39193,0.5241 -0.58789,1.24415 -0.58789,2.16016 0,0.91602 0.19368,1.63835 0.58105,2.16699 0.39193,0.52409 0.92741,0.78614 1.60645,0.78613 0.66992,1e-5 1.20084,-0.26432 1.59277,-0.79296 0.39192,-0.52865 0.58789,-1.2487 0.58789,-2.16016 0,-0.9069 -0.19597,-1.62467 -0.58789,-2.15332 -0.39193,-0.5332 -0.92285,-0.7998 -1.59277,-0.79981 m 0,-1.0664 c 1.09374,10e-6 1.95279,0.35547 2.57715,1.0664 0.62434,0.71095 0.93651,1.69532 0.93652,2.95313 -10e-6,1.25326 -0.31218,2.23763 -0.93652,2.95312 -0.62436,0.71094 -1.48341,1.06641 -2.57715,1.06641 -1.09831,0 -1.95964,-0.35547 -2.58398,-1.06641 -0.6198,-0.71549 -0.92969,-1.69986 -0.92969,-2.95312 0,-1.25781 0.30989,-2.24218 0.92969,-2.95313 0.62434,-0.71093 1.48567,-1.06639 2.58398,-1.0664"
       style="font-size:14px"
       id="path3815"
       inkscape:connector-curvature="0" />
    <path
       d="m 259.36523,190.02675 0,-4.63476 1.25782,0 0,4.58691 c -10e-6,0.72461 0.14127,1.26921 0.42382,1.63379 0.28255,0.36003 0.70638,0.54004 1.27149,0.54004 0.67903,0 1.21451,-0.21647 1.60644,-0.64941 0.39648,-0.43294 0.59472,-1.02311 0.59473,-1.77051 l 0,-4.34082 1.25781,0 0,7.65625 -1.25781,0 0,-1.17578 c -0.30534,0.46484 -0.66081,0.8112 -1.06641,1.03906 -0.40104,0.22331 -0.86816,0.33496 -1.40136,0.33496 -0.87956,0 -1.54721,-0.27344 -2.00293,-0.82031 -0.45573,-0.54688 -0.6836,-1.34668 -0.6836,-2.39942 m 3.16504,-4.81933 0,0"
       style="font-size:14px"
       id="path3817"
       inkscape:connector-curvature="0" />
    <path
       d="m 273.87793,189.22695 c -10e-6,-0.92513 -0.19141,-1.64973 -0.57422,-2.17383 -0.37826,-0.52864 -0.90007,-0.79296 -1.56543,-0.79297 -0.66537,1e-5 -1.18946,0.26433 -1.57226,0.79297 -0.37826,0.5241 -0.56739,1.2487 -0.56739,2.17383 0,0.92513 0.18913,1.65202 0.56739,2.18066 0.3828,0.52409 0.90689,0.78614 1.57226,0.78614 0.66536,0 1.18717,-0.26205 1.56543,-0.78614 0.38281,-0.52864 0.57421,-1.25553 0.57422,-2.18066 m -4.2793,-2.67285 c 0.26432,-0.45572 0.597,-0.79296 0.99805,-1.01172 0.40559,-0.2233 0.88867,-0.33495 1.44922,-0.33496 0.92968,10e-6 1.68391,0.36915 2.26269,1.10742 0.58333,0.73829 0.875,1.70899 0.875,2.91211 0,1.20313 -0.29167,2.17383 -0.875,2.91211 -0.57878,0.73828 -1.33301,1.10742 -2.26269,1.10742 -0.56055,0 -1.04363,-0.10937 -1.44922,-0.32812 -0.40105,-0.22331 -0.73373,-0.56283 -0.99805,-1.01856 l 0,1.14844 -1.26465,0 0,-10.63672 1.26465,0 0,4.14258"
       style="font-size:14px"
       id="path3819"
       inkscape:connector-curvature="0" />
    <path
       d="m 277.26855,182.41152 1.25782,0 0,10.63672 -1.25782,0 0,-10.63672"
       style="font-size:14px"
       id="path3821"
       inkscape:connector-curvature="0" />
    <path
       d="m 287.7002,188.90566 0,0.61523 -5.78321,0 c 0.0547,0.86589 0.31445,1.5267 0.7793,1.98243 0.4694,0.45117 1.12109,0.67676 1.95508,0.67675 0.48306,1e-5 0.95019,-0.0592 1.40136,-0.17773 0.45573,-0.11849 0.9069,-0.29622 1.35352,-0.5332 l 0,1.18945 c -0.45118,0.19141 -0.91374,0.33724 -1.3877,0.4375 -0.47396,0.10026 -0.95475,0.15039 -1.44238,0.15039 -1.22136,0 -2.18978,-0.35547 -2.90527,-1.06641 -0.71094,-0.71093 -1.06641,-1.67252 -1.06641,-2.88476 0,-1.25325 0.33724,-2.24674 1.01172,-2.98047 0.67903,-0.73827 1.59277,-1.10741 2.74121,-1.10742 1.02994,10e-6 1.84342,0.33269 2.44043,0.99804 0.60156,0.66082 0.90234,1.56088 0.90235,2.7002 m -1.25782,-0.36914 c -0.009,-0.68815 -0.2028,-1.2373 -0.58105,-1.64746 -0.37371,-0.41015 -0.87045,-0.61523 -1.49024,-0.61524 -0.70182,1e-5 -1.26465,0.19825 -1.68847,0.59473 -0.41928,0.39649 -0.66081,0.95476 -0.72461,1.67481 l 4.48437,-0.007"
       style="font-size:14px"
       id="path3823"
       inkscape:connector-curvature="0" />
    <path
       d="m 294.64551,185.61757 0,1.18946 c -0.35548,-0.18229 -0.72462,-0.31901 -1.10742,-0.41016 -0.38282,-0.0911 -0.77931,-0.13671 -1.18946,-0.13672 -0.62435,1e-5 -1.09375,0.0957 -1.4082,0.28711 -0.3099,0.19141 -0.46485,0.47852 -0.46484,0.86133 -1e-5,0.29167 0.11165,0.52181 0.33496,0.69043 0.2233,0.16407 0.67219,0.32129 1.34668,0.47168 l 0.43066,0.0957 c 0.89322,0.19141 1.52669,0.46257 1.90039,0.81348 0.37825,0.34636 0.56738,0.83171 0.56738,1.45605 0,0.71094 -0.28255,1.27377 -0.84765,1.68848 -0.56055,0.41471 -1.33301,0.62207 -2.31739,0.62207 -0.41015,0 -0.83854,-0.041 -1.28515,-0.12305 -0.44206,-0.0775 -0.90918,-0.19596 -1.40137,-0.35547 l 0,-1.29882 c 0.46484,0.24153 0.92285,0.42383 1.37402,0.54687 0.45117,0.11849 0.89779,0.17774 1.33985,0.17774 0.59244,0 1.04817,-0.10026 1.36719,-0.30079 0.319,-0.20507 0.47851,-0.49218 0.47851,-0.86132 0,-0.3418 -0.11621,-0.60384 -0.34863,-0.78614 -0.22787,-0.18228 -0.73145,-0.35774 -1.51074,-0.52636 l -0.4375,-0.10254 c -0.7793,-0.16406 -1.34213,-0.41471 -1.68848,-0.75196 -0.34635,-0.34179 -0.51953,-0.80891 -0.51953,-1.40136 0,-0.72005 0.25521,-1.27604 0.76562,-1.66797 0.51042,-0.39192 1.23503,-0.58788 2.17383,-0.58789 0.46484,10e-6 0.90234,0.0342 1.3125,0.10254 0.41015,0.0684 0.78841,0.1709 1.13477,0.30761"
       style="font-size:14px"
       id="path3825"
       inkscape:connector-curvature="0" />
    <path
       d="m 297.06543,185.39199 1.25781,0 0,7.65625 -1.25781,0 0,-7.65625 m 0,-2.98047 1.25781,0 0,1.59277 -1.25781,0 0,-1.59277"
       style="font-size:14px"
       id="path3827"
       inkscape:connector-curvature="0" />
    <path
       d="m 307.3125,188.42714 0,4.6211 -1.25781,0 0,-4.58008 c -10e-6,-0.7246 -0.14128,-1.26692 -0.42383,-1.62695 -0.28256,-0.36002 -0.70639,-0.54004 -1.27149,-0.54004 -0.67904,0 -1.21452,0.21648 -1.60644,0.64941 -0.39193,0.43295 -0.58789,1.02312 -0.58789,1.77051 l 0,4.32715 -1.26465,0 0,-7.65625 1.26465,0 0,1.18945 c 0.30078,-0.46028 0.65397,-0.80435 1.05957,-1.03223 0.41015,-0.22785 0.88183,-0.34178 1.41504,-0.34179 0.87955,10e-6 1.54491,0.27344 1.99609,0.82031 0.45117,0.54232 0.67675,1.34213 0.67676,2.39941"
       style="font-size:14px"
       id="path3829"
       inkscape:connector-curvature="0" />
    <path
       d="m 314.87305,189.13125 c -10e-6,-0.91146 -0.18914,-1.61784 -0.56739,-2.11914 -0.3737,-0.5013 -0.90007,-0.75195 -1.5791,-0.75196 -0.67448,1e-5 -1.20085,0.25066 -1.5791,0.75196 -0.3737,0.5013 -0.56055,1.20768 -0.56055,2.11914 0,0.9069 0.18685,1.611 0.56055,2.1123 0.37825,0.5013 0.90462,0.75195 1.5791,0.75195 0.67903,0 1.2054,-0.25065 1.5791,-0.75195 0.37825,-0.5013 0.56738,-1.2054 0.56739,-2.1123 m 1.25781,2.96679 c -10e-6,1.30339 -0.2894,2.27181 -0.86816,2.90528 -0.57879,0.63801 -1.46518,0.95702 -2.65918,0.95703 -0.44207,-1e-5 -0.85906,-0.0342 -1.25098,-0.10254 -0.39193,-0.0638 -0.77246,-0.16407 -1.1416,-0.30078 l 0,-1.22364 c 0.36914,0.20052 0.73372,0.34864 1.09375,0.44434 0.36002,0.0957 0.72688,0.14355 1.10058,0.14356 0.82487,-1e-5 1.44238,-0.21648 1.85254,-0.64942 0.41015,-0.42839 0.61523,-1.0778 0.61524,-1.94824 l 0,-0.62207 c -0.25977,0.45117 -0.59246,0.78841 -0.99805,1.01172 -0.4056,0.2233 -0.89095,0.33496 -1.45605,0.33496 -0.93881,0 -1.69532,-0.35775 -2.26954,-1.07324 -0.57422,-0.7155 -0.86132,-1.66341 -0.86132,-2.84375 0,-1.18489 0.2871,-2.13509 0.86132,-2.85059 0.57422,-0.71549 1.33073,-1.07323 2.26954,-1.07324 0.5651,10e-6 1.05045,0.11166 1.45605,0.33496 0.40559,0.22331 0.73828,0.56055 0.99805,1.01172 l 0,-1.16211 1.25781,0 0,6.70605"
       style="font-size:14px"
       id="path3831"
       inkscape:connector-curvature="0" />
  </g>
</svg>
