<?xml version="1.0" encoding="UTF-8" standalone="no"?>
<!-- Created with Inkscape (http://www.inkscape.org/) -->
<svg id="svg2" xmlns:rdf="http://www.w3.org/1999/02/22-rdf-syntax-ns#" xmlns="http://www.w3.org/2000/svg" height="151.09" width="126.94" version="1.1" xmlns:cc="http://creativecommons.org/ns#" xmlns:dc="http://purl.org/dc/elements/1.1/">
 <metadata id="metadata8">
  <rdf:RDF>
   <cc:Work rdf:about="">
    <dc:format>image/svg+xml</dc:format>
    <dc:type rdf:resource="http://purl.org/dc/dcmitype/StillImage"/>
    <dc:title/>
   </cc:Work>
  </rdf:RDF>
 </metadata>
 <path id="path2987" stroke-linejoin="miter" d="m18.385,102.66s9.4444,10.556,12.407,15.185c2.963,4.6296,5.1852,12.778,10.556,12.593,5.3704-0.18519,17.407-0.55556,17.407-0.55556s18.148-14.074,20.741-17.222c2.5926-3.1482,8.5185-5.9259,12.593-22.963,4.0741-17.037,2.7778-79.444-10.556-79.074-13.333,0.37037-61.111,3.1481-65.741,9.2593-4.6296,6.1111-7.963,45-7.963,45l1.1111,1.2963s2.4074,5.3704,1.6667,8.3333c-0.74074,2.963-0.55556,12.778-0.55556,12.778s7.7778,9.8148,8.3333,15.37z" stroke="#827372" stroke-linecap="butt" stroke-width="1px" fill="#776968"/>
 <path id="path3769" fill-opacity="0" d="m117.46,42.29s-11.481-21.852-21.296-29.444c-9.8148-7.5926-23.148-12.222-36.111-12.037-12.963,0.18518-24.444,0-31.852,6.1111-7.4074,6.1111-15.185,3.8889-21.852,15.926-6.6667,12.037-5.1852,43.889-5.1852,43.889s5.9259,27.593,9.0741,28.333c0,0-0.18519-5.1852-0.18519-14.259,0-9.0741-3.1482-19.815,1.6667-25.37,4.8148-5.5556,11.296-18.519,15-21.111,3.7037-2.5926,10.926-9.6296,17.963-12.963,7.037-3.3333,11.852-6.8519,13.519-7.037,1.6667-0.18518,6.8518-1.4815,6.8518-1.4815s-0.55555,2.7778-2.4074,4.0741-15.556,21.111-16.481,25.741c0,0,13.704-19.63,16.111-19.63,0,0,2.037,0.55556-0.18518,3.7037s-8.7037,14.074-9.0741,18.704c0,0-0.55555,4.6296,0.37037,3.7037,0,0,13.519-17.037,14.815-19.63,1.2963-2.5926-6.8518,20.37-6.8518,20.37l8.1482-12.593,0.74074,14.259v6.1111s2.2222,2.963,4.2593-0.92592c2.037-3.8889,2.963-12.963,2.963-12.963s1.1111,13.148,0.55555,14.63c-0.55555,1.4815,0.18519,12.593,1.6667,13.148,1.4815,0.55556,3.5185-1.2963,5.7407-1.4815,2.2222-0.18519,15.926,19.074,15.926,22.593,0,3.5185-4.4445,5.7407-3.8889,10.556,0.55555,4.8148,1.2963,11.667,1.4815,12.407,0.18519,0.74074,0,7.4074,1.4815,8.7037s9.8148,11.667,11.667-8.1482c1.8518-19.815,1.1111-35.556,1.1111-35.556z" stroke-opacity="0"/>
 <path id="path3791" stroke-linejoin="miter" d="m87.644,71.735s-6.6667,7.7778-7.963,10.185c-1.2963,2.4074-2.037-7.2222-2.037-7.2222s0-8.5185,0.18519-9.4444c0.18518-0.92592-0.92593-20.741-0.92593-20.741l-6.6667,15.185,0.74074-22.963-9.6296,16.667,6.2963-22.037-14.63,18.519s6.4815-20.37,8.5185-22.778c0,0-2.4074-3.5185-14.63,16.296,0,0-2.4074,2.4074-1.8518,1.2963,0.55556-1.1111,14.444-25.741,14.444-25.741l1.2963-4.2593s-27.407,8.3333-35.556,20.926c-8.1482,12.593-15.185,26.111-15.185,26.111s-0.92592,5.7407-0.18518,7.5926c0.74074,1.8518-0.37037,19.444-0.37037,19.444s-5.9259-6.1111-7.037-9.0741-2.5926-21.667-1.6667-23.519c0.92593-1.8519-0.55555-23.704,1.8518-25,0,0,7.5926-21.852,24.444-24.444,16.852-2.5926,44.444-3.5185,49.63-0.92593,5.1852,2.5926,26.481,12.963,29.815,20.741,3.3333,7.7778-8.1481,47.593-8.1481,47.593z" stroke="#000" stroke-linecap="butt" stroke-width="1px" fill="#000"/>
 <path id="path3787" stroke-linejoin="miter" d="m115.75,83.82s0.65473,11.13-10.345,17.416c-10.999,6.2854-15.19,5.8926-15.19,5.8926" stroke="#8b8b8b" stroke-linecap="butt" stroke-miterlimit="4" stroke-dasharray="none" stroke-width="3" fill="none"/>
 <path id="path3789" stroke-linejoin="miter" d="m90.744,106.6s-9.8209,3.0118-11.916,2.488c-2.0951-0.52379-6.5473,0.78567-6.1544,2.357,0.39284,1.5714,0.39284,3.5355,2.8808,3.2736,2.488-0.26189,7.202-1.8332,9.0352-2.8808s3.2736-1.5714,5.1069-2.0951c1.8332-0.52378,1.0476-3.1427,1.0476-3.1427z" stroke="#000" stroke-linecap="butt" stroke-width="1px" fill="#000"/>
 <path id="path3775" stroke-linejoin="miter" d="m107.11,41.656s-0.65473-8.5115-8.2496-15.844c-7.5948-7.333-19.773-20.035-32.867-20.428-13.095-0.39284-31.296-0.65473-33.915,0.78568h-3.1427s11.785-8.2496,40.331-4.845,47.926,39.284,48.188,40.724c2.2261,0.52378,4.845,10.083,7.9877,15.975,3.1427,5.8926-1.9642,13.487-3.9284,19.511-1.9642,6.0235-7.202,6.8092-8.9043,7.8567-1.7023,1.0476-5.3688-0.52378-5.3688,0.13095s-1.9642,2.0951-2.488,2.488c-0.52378,0.39284-4.9759,3.6665-7.333,3.6665-2.357,0-8.5115-3.2736-9.9519-23.57-1.4404-20.297,8.3805-26.189,9.8209-26.451,1.4404-0.26189,9.8209,0,9.8209,0z" stroke="#242424" stroke-linecap="butt" stroke-width="1px" fill="#282828"/>
 <g id="flowRoot3793" style="letter-spacing:0px;word-spacing:0px;" font-weight="normal" transform="translate(-227.58531,-44.86823)" font-size="8px" font-style="normal" font-family="Sans" line-height="125%" fill="#000">
  <path id="path3813" d="m241.6,183.98,0,7.9365,1.668,0c1.4082,0,2.4382-0.31901,3.0898-0.95703,0.65624-0.63802,0.98436-1.6452,0.98437-3.0215-0.00001-1.3672-0.32813-2.3675-0.98437-3.001-0.6517-0.63801-1.6816-0.95702-3.0898-0.95703h-1.668m-1.3809-1.1348,2.8369,0c1.9779,0.00001,3.4294,0.41245,4.3545,1.2373,0.92512,0.82032,1.3877,2.1055,1.3877,3.8555,0,1.7591-0.46485,3.0511-1.3945,3.876-0.92969,0.82487-2.3789,1.2373-4.3476,1.2373h-2.8369v-10.206"/>
  <path id="path3815" d="m253.9,186.27c-0.67448,0.00001-1.2077,0.26433-1.5996,0.79297-0.39193,0.5241-0.58789,1.2442-0.58789,2.1602,0,0.91602,0.19368,1.6384,0.58105,2.167,0.39193,0.52409,0.92741,0.78614,1.6064,0.78613,0.66992,0.00001,1.2008-0.26432,1.5928-0.79296,0.39192-0.52865,0.58789-1.2487,0.58789-2.1602,0-0.9069-0.19597-1.6247-0.58789-2.1533-0.39193-0.5332-0.92285-0.7998-1.5928-0.79981m0-1.0664c1.0937,0.00001,1.9528,0.35547,2.5772,1.0664,0.62434,0.71095,0.93651,1.6953,0.93652,2.9531-0.00001,1.2533-0.31218,2.2376-0.93652,2.9531-0.62436,0.71094-1.4834,1.0664-2.5772,1.0664-1.0983,0-1.9596-0.35547-2.584-1.0664-0.6198-0.71549-0.92969-1.6999-0.92969-2.9531,0-1.2578,0.30989-2.2422,0.92969-2.9531,0.62434-0.71093,1.4857-1.0664,2.584-1.0664"/>
  <path id="path3817" d="m259.37,190.03,0-4.6348,1.2578,0,0,4.5869c-0.00001,0.72461,0.14127,1.2692,0.42382,1.6338,0.28255,0.36003,0.70638,0.54004,1.2715,0.54004,0.67903,0,1.2145-0.21647,1.6064-0.64941,0.39648-0.43294,0.59472-1.0231,0.59473-1.7705v-4.3408h1.2578v7.6562h-1.2578v-1.1758c-0.30534,0.46484-0.66081,0.8112-1.0664,1.0391-0.40104,0.22331-0.86816,0.33496-1.4014,0.33496-0.87956,0-1.5472-0.27344-2.0029-0.82031-0.45573-0.54688-0.6836-1.3467-0.6836-2.3994m3.165-4.8193"/>
  <path id="path3819" d="m273.88,189.23c-0.00001-0.92513-0.19141-1.6497-0.57422-2.1738-0.37826-0.52864-0.90007-0.79296-1.5654-0.79297-0.66537,0.00001-1.1895,0.26433-1.5723,0.79297-0.37826,0.5241-0.56739,1.2487-0.56739,2.1738,0,0.92513,0.18913,1.652,0.56739,2.1807,0.3828,0.52409,0.90689,0.78614,1.5723,0.78614,0.66536,0,1.1872-0.26205,1.5654-0.78614,0.38281-0.52864,0.57421-1.2555,0.57422-2.1807m-4.2793-2.6728c0.26432-0.45572,0.597-0.79296,0.99805-1.0117,0.40559-0.2233,0.88867-0.33495,1.4492-0.33496,0.92968,0.00001,1.6839,0.36915,2.2627,1.1074,0.58333,0.73829,0.875,1.709,0.875,2.9121s-0.29167,2.1738-0.875,2.9121c-0.57878,0.73828-1.333,1.1074-2.2627,1.1074-0.56055,0-1.0436-0.10937-1.4492-0.32812-0.40105-0.22331-0.73373-0.56283-0.99805-1.0186v1.1484h-1.2646v-10.637h1.2646v4.1426"/>
  <path id="path3821" d="m277.27,182.41,1.2578,0,0,10.637-1.2578,0,0-10.637"/>
  <path id="path3823" d="m287.7,188.91,0,0.61523-5.7832,0c0.0547,0.86589,0.31445,1.5267,0.7793,1.9824,0.4694,0.45117,1.1211,0.67676,1.9551,0.67675,0.48306,0.00001,0.95019-0.0592,1.4014-0.17773,0.45573-0.11849,0.9069-0.29622,1.3535-0.5332v1.1894c-0.45118,0.19141-0.91374,0.33724-1.3877,0.4375s-0.95475,0.15039-1.4424,0.15039c-1.2214,0-2.1898-0.35547-2.9053-1.0664-0.71094-0.71093-1.0664-1.6725-1.0664-2.8848,0-1.2532,0.33724-2.2467,1.0117-2.9805,0.67903-0.73827,1.5928-1.1074,2.7412-1.1074,1.0299,0.00001,1.8434,0.33269,2.4404,0.99804,0.60156,0.66082,0.90234,1.5609,0.90235,2.7002m-1.2578-0.36914c-0.009-0.68815-0.2028-1.2373-0.58105-1.6475-0.37371-0.41015-0.87045-0.61523-1.4902-0.61524-0.70182,0.00001-1.2646,0.19825-1.6885,0.59473-0.41928,0.39649-0.66081,0.95476-0.72461,1.6748l4.4844-0.007"/>
  <path id="path3825" d="m294.65,185.62,0,1.1895c-0.35548-0.18229-0.72462-0.31901-1.1074-0.41016-0.38282-0.0911-0.77931-0.13671-1.1895-0.13672-0.62435,0.00001-1.0938,0.0957-1.4082,0.28711-0.3099,0.19141-0.46485,0.47852-0.46484,0.86133-0.00001,0.29167,0.11165,0.52181,0.33496,0.69043,0.2233,0.16407,0.67219,0.32129,1.3467,0.47168l0.43066,0.0957c0.89322,0.19141,1.5267,0.46257,1.9004,0.81348,0.37825,0.34636,0.56738,0.83171,0.56738,1.456,0,0.71094-0.28255,1.2738-0.84765,1.6885-0.56055,0.41471-1.333,0.62207-2.3174,0.62207-0.41015,0-0.83854-0.041-1.2852-0.12305-0.44206-0.0775-0.90918-0.19596-1.4014-0.35547v-1.2988c0.46484,0.24153,0.92285,0.42383,1.374,0.54687,0.45117,0.11849,0.89779,0.17774,1.3398,0.17774,0.59244,0,1.0482-0.10026,1.3672-0.30079,0.319-0.20507,0.47851-0.49218,0.47851-0.86132,0-0.3418-0.11621-0.60384-0.34863-0.78614-0.22787-0.18228-0.73145-0.35774-1.5107-0.52636l-0.4375-0.10254c-0.7793-0.16406-1.3421-0.41471-1.6885-0.75196-0.34635-0.34179-0.51953-0.80891-0.51953-1.4014,0-0.72005,0.25521-1.276,0.76562-1.668,0.51042-0.39192,1.235-0.58788,2.1738-0.58789,0.46484,0.00001,0.90234,0.0342,1.3125,0.10254,0.41015,0.0684,0.78841,0.1709,1.1348,0.30761"/>
  <path id="path3827" d="m297.07,185.39,1.2578,0,0,7.6562-1.2578,0,0-7.6562m0-2.9805,1.2578,0,0,1.5928-1.2578,0,0-1.5928"/>
  <path id="path3829" d="m307.31,188.43,0,4.6211-1.2578,0,0-4.5801c-0.00001-0.7246-0.14128-1.2669-0.42383-1.627-0.28256-0.36002-0.70639-0.54004-1.2715-0.54004-0.67904,0-1.2145,0.21648-1.6064,0.64941-0.39193,0.43295-0.58789,1.0231-0.58789,1.7705v4.3272h-1.2646v-7.6562h1.2646v1.1894c0.30078-0.46028,0.65397-0.80435,1.0596-1.0322,0.41015-0.22785,0.88183-0.34178,1.415-0.34179,0.87955,0.00001,1.5449,0.27344,1.9961,0.82031,0.45117,0.54232,0.67675,1.3421,0.67676,2.3994"/>
  <path id="path3831" d="m314.87,189.13c-0.00001-0.91146-0.18914-1.6178-0.56739-2.1191-0.3737-0.5013-0.90007-0.75195-1.5791-0.75196-0.67448,0.00001-1.2008,0.25066-1.5791,0.75196-0.3737,0.5013-0.56055,1.2077-0.56055,2.1191,0,0.9069,0.18685,1.611,0.56055,2.1123,0.37825,0.5013,0.90462,0.75195,1.5791,0.75195,0.67903,0,1.2054-0.25065,1.5791-0.75195,0.37825-0.5013,0.56738-1.2054,0.56739-2.1123m1.2578,2.9668c-0.00001,1.3034-0.2894,2.2718-0.86816,2.9053-0.57879,0.63801-1.4652,0.95702-2.6592,0.95703-0.44207-0.00001-0.85906-0.0342-1.251-0.10254-0.39193-0.0638-0.77246-0.16407-1.1416-0.30078v-1.2236c0.36914,0.20052,0.73372,0.34864,1.0938,0.44434,0.36002,0.0957,0.72688,0.14355,1.1006,0.14356,0.82487-0.00001,1.4424-0.21648,1.8525-0.64942,0.41015-0.42839,0.61523-1.0778,0.61524-1.9482v-0.62207c-0.25977,0.45117-0.59246,0.78841-0.99805,1.0117-0.4056,0.2233-0.89095,0.33496-1.456,0.33496-0.93881,0-1.6953-0.35775-2.2695-1.0732-0.57422-0.7155-0.86132-1.6634-0.86132-2.8438,0-1.1849,0.2871-2.1351,0.86132-2.8506,0.57422-0.71549,1.3307-1.0732,2.2695-1.0732,0.5651,0.00001,1.0504,0.11166,1.456,0.33496,0.40559,0.22331,0.73828,0.56055,0.99805,1.0117v-1.1621h1.2578v6.706"/>
 </g>
</svg>
