<?xml version="1.0" encoding="UTF-8" standalone="no"?>
<!-- Created with Inkscape (http://www.inkscape.org/) -->

<svg
   xmlns:dc="http://purl.org/dc/elements/1.1/"
   xmlns:cc="http://creativecommons.org/ns#"
   xmlns:rdf="http://www.w3.org/1999/02/22-rdf-syntax-ns#"
   xmlns:svg="http://www.w3.org/2000/svg"
   xmlns="http://www.w3.org/2000/svg"
   xmlns:sodipodi="http://sodipodi.sourceforge.net/DTD/sodipodi-0.dtd"
   xmlns:inkscape="http://www.inkscape.org/namespaces/inkscape"
   id="svg2"
   version="1.1"
   inkscape:version="0.48.4 r9939"
   width="126.94206"
   height="151.09212"
   sodipodi:docname="logo.svg"
   inkscape:export-filename="/home/anthony/Desktop/doubsing.png"
   inkscape:export-xdpi="7089.8486"
   inkscape:export-ydpi="7089.8486">
  <metadata
     id="metadata8">
    <rdf:RDF>
      <cc:Work
         rdf:about="">
        <dc:format>image/svg+xml</dc:format>
        <dc:type
           rdf:resource="http://purl.org/dc/dcmitype/StillImage" />
        <dc:title></dc:title>
      </cc:Work>
    </rdf:RDF>
  </metadata>
  <defs
     id="defs6" />
  <sodipodi:namedview
     pagecolor="#ffffff"
     bordercolor="#666666"
     borderopacity="1"
     objecttolerance="10"
     gridtolerance="10"
     guidetolerance="10"
     inkscape:pageopacity="0"
     inkscape:pageshadow="2"
     inkscape:window-width="1215"
     inkscape:window-height="776"
     id="namedview4"
     showgrid="false"
     inkscape:zoom="2.7"
     inkscape:cx="45.204628"
     inkscape:cy="65.522904"
     inkscape:window-x="65"
     inkscape:window-y="24"
     inkscape:window-maximized="1"
     inkscape:current-layer="svg2"
     fit-margin-top="0"
     fit-margin-left="0"
     fit-margin-right="0"
     fit-margin-bottom="0" />
  <path
     style="fill:#776968;fill-opacity:1;stroke:#827372;stroke-width:1px;stroke-linecap:butt;stroke-linejoin:miter;stroke-opacity:1"
     d="m 18.385157,102.66082 c 0,0 9.44445,10.55556 12.40741,15.18519 2.96297,4.62963 5.18519,12.77777 10.55556,12.59259 5.37037,-0.18519 17.40741,-0.55556 17.40741,-0.55556 0,0 18.14814,-14.07407 20.74074,-17.22222 2.59259,-3.14815 8.51851,-5.92592 12.59259,-22.962964 4.07407,-17.03704 2.77778,-79.444446 -10.55556,-79.074076 -13.33333,0.37037 -61.11111,3.148148 -65.74074,9.259259 -4.62963,6.111111 -7.9629605,44.999997 -7.9629605,44.999997 l 1.11111,1.2963 c 0,0 2.4074105,5.37037 1.6666705,8.33333 -0.7407405,2.96297 -0.55556,12.77778 -0.55556,12.77778 0,0 7.77778,9.81482 8.33333,15.370374 z"
     id="path2987"
     inkscape:connector-curvature="0" />
  <path
     style="fill:#000000;fill-opacity:0;stroke:#000000;stroke-width:1px;stroke-linecap:butt;stroke-linejoin:miter;stroke-opacity:0"
     d="m 117.45924,42.290447 c 0,0 -11.48148,-21.851852 -21.296303,-29.444445 -9.81481,-7.5925922 -23.14815,-12.22222216 -36.11111,-12.03703716 -12.96296,0.185185 -24.44444,0 -31.85185,6.11111096 -7.40741,6.1111112 -15.18519,3.8888892 -21.8518505,15.9259262 -6.66666998,12.037037 -5.18519,43.888894 -5.18519,43.888894 0,0 5.92593,27.59259 9.0740805,28.33333 0,0 -0.18519,-5.18519 -0.18519,-14.25926 0,-9.07407 -3.1481505,-19.81482 1.66667,-25.370371 4.81481,-5.555556 11.29629,-18.518519 15,-21.111111 3.7037,-2.592593 10.92592,-9.62963 17.96296,-12.962963 7.03704,-3.333334 11.85185,-6.851852 13.51852,-7.037037 1.66667,-0.185185 6.85185,-1.481482 6.85185,-1.481482 0,0 -0.55555,2.777778 -2.40741,4.074074 -1.85185,1.296297 -15.55555,21.111111 -16.48148,25.740741 0,0 13.70371,-19.62963 16.11111,-19.62963 0,0 2.03704,0.555556 -0.18518,3.703704 -2.22222,3.148148 -8.70371,14.074074 -9.07408,18.703704 0,0 -0.55555,4.62963 0.37037,3.703704 0,0 13.51852,-17.037037 14.81482,-19.62963 1.2963,-2.592593 -6.85185,20.37037 -6.85185,20.37037 l 8.14815,-12.592592 0.74074,14.259259 0,6.11111 c 0,0 2.22222,2.96296 4.25926,-0.92592 2.03703,-3.888894 2.96296,-12.962968 2.96296,-12.962968 0,0 1.11111,13.148148 0.55555,14.629628 -0.55555,1.48148 0.18519,12.59259 1.66667,13.14815 1.48148,0.55556 3.51852,-1.2963 5.74074,-1.48148 2.22222,-0.18519 15.925933,19.07407 15.925933,22.59259 0,3.51852 -4.444453,5.74074 -3.888893,10.555564 0.55555,4.81481 1.2963,11.66666 1.48148,12.4074 0.18519,0.74074 0,7.40741 1.481483,8.70371 1.48148,1.29629 9.81482,11.66666 11.66667,-8.14815 1.85185,-19.814824 1.11111,-35.555564 1.11111,-35.555564 z"
     id="path3769"
     inkscape:connector-curvature="0" />
  <path
     style="fill:#000000;fill-opacity:1;stroke:#000000;stroke-width:1px;stroke-linecap:butt;stroke-linejoin:miter;stroke-opacity:1"
     d="m 87.644417,71.734896 c 0,0 -6.66666,7.77777 -7.96296,10.18518 -1.2963,2.40741 -2.03704,-7.22222 -2.03704,-7.22222 0,0 0,-8.51852 0.18519,-9.44445 0.18518,-0.92592 -0.92593,-20.740737 -0.92593,-20.740737 l -6.66666,15.185187 0.74074,-22.962965 -9.62963,16.666667 6.29629,-22.037037 -14.62963,18.518518 c 0,0 6.48149,-20.37037 8.51852,-22.777777 0,0 -2.4074,-3.518519 -14.62963,16.296296 0,0 -2.4074,2.407407 -1.85185,1.296296 0.55556,-1.111111 14.44445,-25.740741 14.44445,-25.740741 l 1.29629,-4.259259 c 0,0 -27.40741,8.333333 -35.55555,20.925926 -8.14815,12.592593 -15.18519,26.111116 -15.18519,26.111116 0,0 -0.9259205,5.74074 -0.1851805,7.59259 0.7407405,1.85185 -0.37037,19.44444 -0.37037,19.44444 0,0 -5.92593,-6.11111 -7.03704,-9.07407 -1.11111,-2.96296 -2.59258998,-21.66667 -1.66666998,-23.51852 0.92592998,-1.851852 -0.55555,-23.703704 1.85184998,-25 0,0 7.5926005,-21.8518522 24.4444505,-24.4444452 16.85185,-2.592592 44.44444,-3.518518 49.62963,-0.925926 5.18518,2.592593 26.481483,12.9629632 29.814813,20.7407412 3.33334,7.777778 -8.148143,47.59259 -8.148143,47.59259 z"
     id="path3791"
     inkscape:connector-curvature="0"
     sodipodi:nodetypes="cscsccccccccsccscscsscssscc" />
  <path
     style="fill:none;stroke:#8b8b8b;stroke-width:3;stroke-linecap:butt;stroke-linejoin:miter;stroke-miterlimit:4;stroke-opacity:1;stroke-dasharray:none"
     d="m 115.75432,83.820106 c 0,0 0.65473,11.13038 -10.34471,17.415774 -10.999443,6.2854 -15.189703,5.89256 -15.189703,5.89256"
     id="path3787"
     inkscape:connector-curvature="0" />
  <path
     style="fill:#000000;fill-opacity:1;stroke:#000000;stroke-width:1px;stroke-linecap:butt;stroke-linejoin:miter;stroke-opacity:1"
     d="m 90.743687,106.60466 c 0,0 -9.82093,3.01175 -11.91606,2.48797 -2.09513,-0.52379 -6.54728,0.78567 -6.15445,2.35702 0.39284,1.57135 0.39284,3.53553 2.88081,3.27364 2.48797,-0.26189 7.20201,-1.83324 9.03525,-2.8808 1.83324,-1.04757 3.27364,-1.57135 5.10688,-2.09514 1.83324,-0.52378 1.04757,-3.14269 1.04757,-3.14269 z"
     id="path3789"
     inkscape:connector-curvature="0"
     sodipodi:nodetypes="csssssc" />
  <path
     style="fill:#282828;fill-opacity:1;stroke:#242424;stroke-width:1px;stroke-linecap:butt;stroke-linejoin:miter;stroke-opacity:1"
     d="m 107.1119,41.655586 c 0,0 -0.65473,-8.51147 -8.249583,-15.844429 -7.59485,-7.33296 -19.7728,-20.0346922 -32.86737,-20.4275302 -13.09457,-0.392837 -31.29602,-0.654728 -33.91493,0.785675 l -3.1427,0 c 0,0 11.78511,-8.249579 40.33128,-4.844991 28.54616,3.404588 47.926123,39.2837102 48.188013,40.7241132 2.22607,0.523783 4.84499,10.082819 7.98769,15.975372 3.1427,5.89256 -1.96418,13.48741 -3.92837,19.51091 -1.96419,6.0235 -7.20201,6.80918 -8.90431,7.85674 -1.70229,1.04757 -5.36877,-0.52378 -5.36877,0.13095 0,0.65473 -1.96419,2.09513 -2.48797,2.48797 -0.52378,0.39284 -4.975943,3.66648 -7.332963,3.66648 -2.35702,0 -8.51147,-3.27364 -9.95187,-23.57023 -1.4404,-20.296582 8.38052,-26.189138 9.82093,-26.45103 1.4404,-0.261891 9.820923,0 9.820923,0 z"
     id="path3775"
     inkscape:connector-curvature="0" />
  <g
     transform="translate(-227.58531,-44.86823)"
     style="font-size:8px;font-style:normal;font-weight:normal;line-height:125%;letter-spacing:0px;word-spacing:0px;fill:#000000;fill-opacity:1;stroke:none;font-family:Sans"
     id="flowRoot3793">
    <path
       d="m 241.59863,183.97695 0,7.93652 1.66797,0 c 1.4082,0 2.43815,-0.31901 3.08985,-0.95703 0.65624,-0.63802 0.98436,-1.64518 0.98437,-3.02148 -1e-5,-1.36718 -0.32813,-2.36751 -0.98437,-3.00098 -0.6517,-0.63801 -1.68165,-0.95702 -3.08985,-0.95703 l -1.66797,0 m -1.38086,-1.13477 2.83692,0 c 1.97786,10e-6 3.42935,0.41245 4.35449,1.23731 0.92512,0.82032 1.38769,2.10547 1.38769,3.85547 0,1.75911 -0.46485,3.05111 -1.39453,3.87597 -0.92969,0.82487 -2.37891,1.23731 -4.34765,1.23731 l -2.83692,0 0,-10.20606"
       style="font-size:14px"
       id="path3813"
       inkscape:connector-curvature="0" />
    <path
       d="m 253.90332,186.27382 c -0.67448,1e-5 -1.20769,0.26433 -1.59961,0.79297 -0.39193,0.5241 -0.58789,1.24415 -0.58789,2.16016 0,0.91602 0.19368,1.63835 0.58105,2.16699 0.39193,0.52409 0.92741,0.78614 1.60645,0.78613 0.66992,1e-5 1.20084,-0.26432 1.59277,-0.79296 0.39192,-0.52865 0.58789,-1.2487 0.58789,-2.16016 0,-0.9069 -0.19597,-1.62467 -0.58789,-2.15332 -0.39193,-0.5332 -0.92285,-0.7998 -1.59277,-0.79981 m 0,-1.0664 c 1.09374,10e-6 1.95279,0.35547 2.57715,1.0664 0.62434,0.71095 0.93651,1.69532 0.93652,2.95313 -10e-6,1.25326 -0.31218,2.23763 -0.93652,2.95312 -0.62436,0.71094 -1.48341,1.06641 -2.57715,1.06641 -1.09831,0 -1.95964,-0.35547 -2.58398,-1.06641 -0.6198,-0.71549 -0.92969,-1.69986 -0.92969,-2.95312 0,-1.25781 0.30989,-2.24218 0.92969,-2.95313 0.62434,-0.71093 1.48567,-1.06639 2.58398,-1.0664"
       style="font-size:14px"
       id="path3815"
       inkscape:connector-curvature="0" />
    <path
       d="m 259.36523,190.02675 0,-4.63476 1.25782,0 0,4.58691 c -10e-6,0.72461 0.14127,1.26921 0.42382,1.63379 0.28255,0.36003 0.70638,0.54004 1.27149,0.54004 0.67903,0 1.21451,-0.21647 1.60644,-0.64941 0.39648,-0.43294 0.59472,-1.02311 0.59473,-1.77051 l 0,-4.34082 1.25781,0 0,7.65625 -1.25781,0 0,-1.17578 c -0.30534,0.46484 -0.66081,0.8112 -1.06641,1.03906 -0.40104,0.22331 -0.86816,0.33496 -1.40136,0.33496 -0.87956,0 -1.54721,-0.27344 -2.00293,-0.82031 -0.45573,-0.54688 -0.6836,-1.34668 -0.6836,-2.39942 m 3.16504,-4.81933 0,0"
       style="font-size:14px"
       id="path3817"
       inkscape:connector-curvature="0" />
    <path
       d="m 273.87793,189.22695 c -10e-6,-0.92513 -0.19141,-1.64973 -0.57422,-2.17383 -0.37826,-0.52864 -0.90007,-0.79296 -1.56543,-0.79297 -0.66537,1e-5 -1.18946,0.26433 -1.57226,0.79297 -0.37826,0.5241 -0.56739,1.2487 -0.56739,2.17383 0,0.92513 0.18913,1.65202 0.56739,2.18066 0.3828,0.52409 0.90689,0.78614 1.57226,0.78614 0.66536,0 1.18717,-0.26205 1.56543,-0.78614 0.38281,-0.52864 0.57421,-1.25553 0.57422,-2.18066 m -4.2793,-2.67285 c 0.26432,-0.45572 0.597,-0.79296 0.99805,-1.01172 0.40559,-0.2233 0.88867,-0.33495 1.44922,-0.33496 0.92968,10e-6 1.68391,0.36915 2.26269,1.10742 0.58333,0.73829 0.875,1.70899 0.875,2.91211 0,1.20313 -0.29167,2.17383 -0.875,2.91211 -0.57878,0.73828 -1.33301,1.10742 -2.26269,1.10742 -0.56055,0 -1.04363,-0.10937 -1.44922,-0.32812 -0.40105,-0.22331 -0.73373,-0.56283 -0.99805,-1.01856 l 0,1.14844 -1.26465,0 0,-10.63672 1.26465,0 0,4.14258"
       style="font-size:14px"
       id="path3819"
       inkscape:connector-curvature="0" />
    <path
       d="m 277.26855,182.41152 1.25782,0 0,10.63672 -1.25782,0 0,-10.63672"
       style="font-size:14px"
       id="path3821"
       inkscape:connector-curvature="0" />
    <path
       d="m 287.7002,188.90566 0,0.61523 -5.78321,0 c 0.0547,0.86589 0.31445,1.5267 0.7793,1.98243 0.4694,0.45117 1.12109,0.67676 1.95508,0.67675 0.48306,1e-5 0.95019,-0.0592 1.40136,-0.17773 0.45573,-0.11849 0.9069,-0.29622 1.35352,-0.5332 l 0,1.18945 c -0.45118,0.19141 -0.91374,0.33724 -1.3877,0.4375 -0.47396,0.10026 -0.95475,0.15039 -1.44238,0.15039 -1.22136,0 -2.18978,-0.35547 -2.90527,-1.06641 -0.71094,-0.71093 -1.06641,-1.67252 -1.06641,-2.88476 0,-1.25325 0.33724,-2.24674 1.01172,-2.98047 0.67903,-0.73827 1.59277,-1.10741 2.74121,-1.10742 1.02994,10e-6 1.84342,0.33269 2.44043,0.99804 0.60156,0.66082 0.90234,1.56088 0.90235,2.7002 m -1.25782,-0.36914 c -0.009,-0.68815 -0.2028,-1.2373 -0.58105,-1.64746 -0.37371,-0.41015 -0.87045,-0.61523 -1.49024,-0.61524 -0.70182,1e-5 -1.26465,0.19825 -1.68847,0.59473 -0.41928,0.39649 -0.66081,0.95476 -0.72461,1.67481 l 4.48437,-0.007"
       style="font-size:14px"
       id="path3823"
       inkscape:connector-curvature="0" />
    <path
       d="m 294.64551,185.61757 0,1.18946 c -0.35548,-0.18229 -0.72462,-0.31901 -1.10742,-0.41016 -0.38282,-0.0911 -0.77931,-0.13671 -1.18946,-0.13672 -0.62435,1e-5 -1.09375,0.0957 -1.4082,0.28711 -0.3099,0.19141 -0.46485,0.47852 -0.46484,0.86133 -1e-5,0.29167 0.11165,0.52181 0.33496,0.69043 0.2233,0.16407 0.67219,0.32129 1.34668,0.47168 l 0.43066,0.0957 c 0.89322,0.19141 1.52669,0.46257 1.90039,0.81348 0.37825,0.34636 0.56738,0.83171 0.56738,1.45605 0,0.71094 -0.28255,1.27377 -0.84765,1.68848 -0.56055,0.41471 -1.33301,0.62207 -2.31739,0.62207 -0.41015,0 -0.83854,-0.041 -1.28515,-0.12305 -0.44206,-0.0775 -0.90918,-0.19596 -1.40137,-0.35547 l 0,-1.29882 c 0.46484,0.24153 0.92285,0.42383 1.37402,0.54687 0.45117,0.11849 0.89779,0.17774 1.33985,0.17774 0.59244,0 1.04817,-0.10026 1.36719,-0.30079 0.319,-0.20507 0.47851,-0.49218 0.47851,-0.86132 0,-0.3418 -0.11621,-0.60384 -0.34863,-0.78614 -0.22787,-0.18228 -0.73145,-0.35774 -1.51074,-0.52636 l -0.4375,-0.10254 c -0.7793,-0.16406 -1.34213,-0.41471 -1.68848,-0.75196 -0.34635,-0.34179 -0.51953,-0.80891 -0.51953,-1.40136 0,-0.72005 0.25521,-1.27604 0.76562,-1.66797 0.51042,-0.39192 1.23503,-0.58788 2.17383,-0.58789 0.46484,10e-6 0.90234,0.0342 1.3125,0.10254 0.41015,0.0684 0.78841,0.1709 1.13477,0.30761"
       style="font-size:14px"
       id="path3825"
       inkscape:connector-curvature="0" />
    <path
       d="m 297.06543,185.39199 1.25781,0 0,7.65625 -1.25781,0 0,-7.65625 m 0,-2.98047 1.25781,0 0,1.59277 -1.25781,0 0,-1.59277"
       style="font-size:14px"
       id="path3827"
       inkscape:connector-curvature="0" />
    <path
       d="m 307.3125,188.42714 0,4.6211 -1.25781,0 0,-4.58008 c -10e-6,-0.7246 -0.14128,-1.26692 -0.42383,-1.62695 -0.28256,-0.36002 -0.70639,-0.54004 -1.27149,-0.54004 -0.67904,0 -1.21452,0.21648 -1.60644,0.64941 -0.39193,0.43295 -0.58789,1.02312 -0.58789,1.77051 l 0,4.32715 -1.26465,0 0,-7.65625 1.26465,0 0,1.18945 c 0.30078,-0.46028 0.65397,-0.80435 1.05957,-1.03223 0.41015,-0.22785 0.88183,-0.34178 1.41504,-0.34179 0.87955,10e-6 1.54491,0.27344 1.99609,0.82031 0.45117,0.54232 0.67675,1.34213 0.67676,2.39941"
       style="font-size:14px"
       id="path3829"
       inkscape:connector-curvature="0" />
    <path
       d="m 314.87305,189.13125 c -10e-6,-0.91146 -0.18914,-1.61784 -0.56739,-2.11914 -0.3737,-0.5013 -0.90007,-0.75195 -1.5791,-0.75196 -0.67448,1e-5 -1.20085,0.25066 -1.5791,0.75196 -0.3737,0.5013 -0.56055,1.20768 -0.56055,2.11914 0,0.9069 0.18685,1.611 0.56055,2.1123 0.37825,0.5013 0.90462,0.75195 1.5791,0.75195 0.67903,0 1.2054,-0.25065 1.5791,-0.75195 0.37825,-0.5013 0.56738,-1.2054 0.56739,-2.1123 m 1.25781,2.96679 c -10e-6,1.30339 -0.2894,2.27181 -0.86816,2.90528 -0.57879,0.63801 -1.46518,0.95702 -2.65918,0.95703 -0.44207,-1e-5 -0.85906,-0.0342 -1.25098,-0.10254 -0.39193,-0.0638 -0.77246,-0.16407 -1.1416,-0.30078 l 0,-1.22364 c 0.36914,0.20052 0.73372,0.34864 1.09375,0.44434 0.36002,0.0957 0.72688,0.14355 1.10058,0.14356 0.82487,-1e-5 1.44238,-0.21648 1.85254,-0.64942 0.41015,-0.42839 0.61523,-1.0778 0.61524,-1.94824 l 0,-0.62207 c -0.25977,0.45117 -0.59246,0.78841 -0.99805,1.01172 -0.4056,0.2233 -0.89095,0.33496 -1.45605,0.33496 -0.93881,0 -1.69532,-0.35775 -2.26954,-1.07324 -0.57422,-0.7155 -0.86132,-1.66341 -0.86132,-2.84375 0,-1.18489 0.2871,-2.13509 0.86132,-2.85059 0.57422,-0.71549 1.33073,-1.07323 2.26954,-1.07324 0.5651,10e-6 1.05045,0.11166 1.45605,0.33496 0.40559,0.22331 0.73828,0.56055 0.99805,1.01172 l 0,-1.16211 1.25781,0 0,6.70605"
       style="font-size:14px"
       id="path3831"
       inkscape:connector-curvature="0" />
  </g>
</svg>
