<?xml version="1.0" encoding="UTF-8" standalone="no"?>
<!-- Created with Inkscape (http://www.inkscape.org/) -->
<svg id="svg2" xmlns:rdf="http://www.w3.org/1999/02/22-rdf-syntax-ns#" xmlns="http://www.w3.org/2000/svg" height="382.2" width="321.13" version="1.1" xmlns:cc="http://creativecommons.org/ns#" xmlns:dc="http://purl.org/dc/elements/1.1/">
 <metadata id="metadata8">
  <rdf:RDF>
   <cc:Work rdf:about="">
    <dc:format>image/svg+xml</dc:format>
    <dc:type rdf:resource="http://purl.org/dc/dcmitype/StillImage"/>
    <dc:title/>
   </cc:Work>
  </rdf:RDF>
 </metadata>
 <path id="path2987" stroke-linejoin="miter" d="m46.517,259.69s23.891,26.701,31.386,38.413c7.4952,11.711,13.117,32.323,26.701,31.854,13.585-0.46845,44.034-1.4054,44.034-1.4054s45.908-35.602,52.466-43.565c6.5582-7.9636,21.548-14.99,31.854-58.087,10.31-43.09,7.03-200.95-26.69-200.02-33.73,0.937-154.59,7.963-166.3,23.422-11.711,15.459-20.143,113.84-20.143,113.84l2.8107,3.2791s6.0898,13.585,4.216,21.08c-1.8738,7.4952-1.4054,32.323-1.4054,32.323s19.675,24.828,21.08,38.881z" stroke="#827372" stroke-linecap="butt" stroke-width="2.52960968px" fill="#776968"/>
 <path id="path3769" fill-opacity="0" d="m297.14,106.98s-29.044-55.277-53.871-74.483c-24.828-19.206-58.556-30.917-91.347-30.449-32.791,0.46844-61.835,0-80.573,15.459s-38.413,9.8374-55.277,40.286c-16.867,30.446-13.119,111.02-13.119,111.02s14.99,69.798,22.954,71.672c0,0-0.46846-13.117-0.46846-36.07,0-22.954-7.9636-50.124,4.216-64.177s28.575-46.845,37.944-53.403c9.3689-6.5582,27.638-24.359,45.439-32.791s29.981-17.333,34.197-17.801c4.216-0.46845,17.332-3.7476,17.332-3.7476s-1.4053,7.0267-6.0898,10.306c-4.6844,3.2791-39.349,53.403-41.692,65.114,0,0,34.665-49.655,40.755-49.655,0,0,5.1529,1.4053-0.46843,9.3689-5.6214,7.9636-22.017,35.602-22.954,47.313,0,0-1.4053,11.711,0.93689,9.3689,0,0,34.197-43.097,37.476-49.655,3.2791-6.5582-17.332,51.529-17.332,51.529l20.612-31.854,1.8738,36.07v15.459s5.6214,7.4951,10.774-2.3422c5.1529-9.8374,7.4951-32.791,7.4951-32.791s2.8107,33.26,1.4053,37.007c-1.4053,3.7476,0.46846,31.854,4.216,33.26,3.7476,1.4054,8.9005-3.2791,14.522-3.7476,5.6214-0.46846,40.286,48.25,40.286,57.15,0,8.9005-11.243,14.522-9.8374,26.701,1.4053,12.18,3.2791,29.512,3.7476,31.386,0.46846,1.8738,0,18.738,3.7476,22.017,3.7476,3.2791,24.828,29.512,29.512-20.612,4.6845-50.124,2.8107-89.942,2.8107-89.942z" stroke-opacity="0"/>
 <path id="path3791" stroke-linejoin="miter" d="m221.72,181.46s-16.864,19.675-20.143,25.765c-3.2791,6.0898-5.1529-18.269-5.1529-18.269s0-21.549,0.46846-23.891c0.46843-2.3422-2.3422-52.466-2.3422-52.466l-16.864,38.413,1.8738-58.087-24.359,42.16,15.927-55.745-37.007,46.845s16.396-51.529,21.549-57.619c0,0-6.0898-8.9005-37.007,41.223,0,0-6.0898,6.0898-4.6844,3.2791s36.539-65.114,36.539-65.114l3.2791-10.774s-69.33,21.08-89.942,52.934-38.413,66.051-38.413,66.051-2.3422,14.522-0.46843,19.206c1.8738,4.6845-0.93689,49.187-0.93689,49.187s-14.99-15.459-17.801-22.954c-2.8107-7.4951-6.5582-54.808-4.216-59.493,2.3422-4.6845-1.4053-59.961,4.6845-63.24,0,0,19.206-55.277,61.835-61.835,42.629-6.5582,112.43-8.9005,125.54-2.3422,13.116,6.5582,66.988,32.791,75.42,52.466s-20.612,120.39-20.612,120.39z" stroke="#000" stroke-linecap="butt" stroke-width="2.52960968px" fill="#000"/>
 <path id="path3787" stroke-linejoin="miter" d="m292.82,212.03s1.6562,28.156-26.168,44.055c-27.824,15.9-38.424,14.906-38.424,14.906" stroke="#8b8b8b" stroke-linecap="butt" stroke-miterlimit="4" stroke-dasharray="none" stroke-width="7.58882952" fill="none"/>
 <path id="path3789" stroke-linejoin="miter" d="m229.56,269.67s-24.843,7.6186-30.143,6.2936c-5.2999-1.325-16.562,1.9874-15.568,5.9623,0.99374,3.9749,0.99374,8.9435,7.2873,8.281,6.2936-0.66248,18.218-4.6374,22.856-7.2873,4.6374-2.6499,8.281-3.9749,12.918-5.2999,4.6374-1.325,2.6499-7.9498,2.6499-7.9498z" stroke="#000" stroke-linecap="butt" stroke-width="2.52960968px" fill="#000"/>
 <path id="path3775" stroke-linejoin="miter" d="m270.96,105.37s-1.6562-21.531-20.868-40.08c-19.212-18.55-50.017-50.68-83.142-51.674-33.124-0.99373-79.167-1.6562-85.792,1.9874h-7.9498s29.812-20.868,102.02-12.256c72.211,8.6123,121.23,99.372,121.9,103.02,5.6311,1.325,12.256,25.506,20.206,40.411,7.9498,14.906-4.9686,34.118-9.9372,49.355s-18.218,17.225-22.524,19.874c-4.3061,2.65-13.581-1.325-13.581,0.33126,0,1.6562-4.9686,5.2999-6.2936,6.2936-1.325,0.99373-12.587,9.2748-18.55,9.2748-5.9623,0-21.531-8.281-25.174-59.623-3.6436-51.342,21.199-66.248,24.843-66.911,3.6436-0.66248,24.843,0,24.843,0z" stroke="#242424" stroke-linecap="butt" stroke-width="2.52960968px" fill="#282828"/>
 <g id="flowRoot3793" style="letter-spacing:0px;word-spacing:0px;" font-weight="normal" transform="matrix(2.5296098,0,0,2.5296098,-575.6928,-113.50023)" font-size="8px" font-style="normal" font-family="Sans" line-height="125%" fill="#000">
  <path id="path3813" d="m241.6,183.98,0,7.9365,1.668,0c1.4082,0,2.4382-0.31901,3.0898-0.95703,0.65624-0.63802,0.98436-1.6452,0.98437-3.0215-0.00001-1.3672-0.32813-2.3675-0.98437-3.001-0.6517-0.63801-1.6816-0.95702-3.0898-0.95703h-1.668m-1.3809-1.1348,2.8369,0c1.9779,0.00001,3.4294,0.41245,4.3545,1.2373,0.92512,0.82032,1.3877,2.1055,1.3877,3.8555,0,1.7591-0.46485,3.0511-1.3945,3.876-0.92969,0.82487-2.3789,1.2373-4.3476,1.2373h-2.8369v-10.206"/>
  <path id="path3815" d="m253.9,186.27c-0.67448,0.00001-1.2077,0.26433-1.5996,0.79297-0.39193,0.5241-0.58789,1.2442-0.58789,2.1602,0,0.91602,0.19368,1.6384,0.58105,2.167,0.39193,0.52409,0.92741,0.78614,1.6064,0.78613,0.66992,0.00001,1.2008-0.26432,1.5928-0.79296,0.39192-0.52865,0.58789-1.2487,0.58789-2.1602,0-0.9069-0.19597-1.6247-0.58789-2.1533-0.39193-0.5332-0.92285-0.7998-1.5928-0.79981m0-1.0664c1.0937,0.00001,1.9528,0.35547,2.5772,1.0664,0.62434,0.71095,0.93651,1.6953,0.93652,2.9531-0.00001,1.2533-0.31218,2.2376-0.93652,2.9531-0.62436,0.71094-1.4834,1.0664-2.5772,1.0664-1.0983,0-1.9596-0.35547-2.584-1.0664-0.6198-0.71549-0.92969-1.6999-0.92969-2.9531,0-1.2578,0.30989-2.2422,0.92969-2.9531,0.62434-0.71093,1.4857-1.0664,2.584-1.0664"/>
  <path id="path3817" d="m259.37,190.03,0-4.6348,1.2578,0,0,4.5869c-0.00001,0.72461,0.14127,1.2692,0.42382,1.6338,0.28255,0.36003,0.70638,0.54004,1.2715,0.54004,0.67903,0,1.2145-0.21647,1.6064-0.64941,0.39648-0.43294,0.59472-1.0231,0.59473-1.7705v-4.3408h1.2578v7.6562h-1.2578v-1.1758c-0.30534,0.46484-0.66081,0.8112-1.0664,1.0391-0.40104,0.22331-0.86816,0.33496-1.4014,0.33496-0.87956,0-1.5472-0.27344-2.0029-0.82031-0.45573-0.54688-0.6836-1.3467-0.6836-2.3994m3.165-4.8193"/>
  <path id="path3819" d="m273.88,189.23c-0.00001-0.92513-0.19141-1.6497-0.57422-2.1738-0.37826-0.52864-0.90007-0.79296-1.5654-0.79297-0.66537,0.00001-1.1895,0.26433-1.5723,0.79297-0.37826,0.5241-0.56739,1.2487-0.56739,2.1738,0,0.92513,0.18913,1.652,0.56739,2.1807,0.3828,0.52409,0.90689,0.78614,1.5723,0.78614,0.66536,0,1.1872-0.26205,1.5654-0.78614,0.38281-0.52864,0.57421-1.2555,0.57422-2.1807m-4.2793-2.6728c0.26432-0.45572,0.597-0.79296,0.99805-1.0117,0.40559-0.2233,0.88867-0.33495,1.4492-0.33496,0.92968,0.00001,1.6839,0.36915,2.2627,1.1074,0.58333,0.73829,0.875,1.709,0.875,2.9121s-0.29167,2.1738-0.875,2.9121c-0.57878,0.73828-1.333,1.1074-2.2627,1.1074-0.56055,0-1.0436-0.10937-1.4492-0.32812-0.40105-0.22331-0.73373-0.56283-0.99805-1.0186v1.1484h-1.2646v-10.637h1.2646v4.1426"/>
  <path id="path3821" d="m277.27,182.41,1.2578,0,0,10.637-1.2578,0,0-10.637"/>
  <path id="path3823" d="m287.7,188.91,0,0.61523-5.7832,0c0.0547,0.86589,0.31445,1.5267,0.7793,1.9824,0.4694,0.45117,1.1211,0.67676,1.9551,0.67675,0.48306,0.00001,0.95019-0.0592,1.4014-0.17773,0.45573-0.11849,0.9069-0.29622,1.3535-0.5332v1.1894c-0.45118,0.19141-0.91374,0.33724-1.3877,0.4375s-0.95475,0.15039-1.4424,0.15039c-1.2214,0-2.1898-0.35547-2.9053-1.0664-0.71094-0.71093-1.0664-1.6725-1.0664-2.8848,0-1.2532,0.33724-2.2467,1.0117-2.9805,0.67903-0.73827,1.5928-1.1074,2.7412-1.1074,1.0299,0.00001,1.8434,0.33269,2.4404,0.99804,0.60156,0.66082,0.90234,1.5609,0.90235,2.7002m-1.2578-0.36914c-0.009-0.68815-0.2028-1.2373-0.58105-1.6475-0.37371-0.41015-0.87045-0.61523-1.4902-0.61524-0.70182,0.00001-1.2646,0.19825-1.6885,0.59473-0.41928,0.39649-0.66081,0.95476-0.72461,1.6748l4.4844-0.007"/>
  <path id="path3825" d="m294.65,185.62,0,1.1895c-0.35548-0.18229-0.72462-0.31901-1.1074-0.41016-0.38282-0.0911-0.77931-0.13671-1.1895-0.13672-0.62435,0.00001-1.0938,0.0957-1.4082,0.28711-0.3099,0.19141-0.46485,0.47852-0.46484,0.86133-0.00001,0.29167,0.11165,0.52181,0.33496,0.69043,0.2233,0.16407,0.67219,0.32129,1.3467,0.47168l0.43066,0.0957c0.89322,0.19141,1.5267,0.46257,1.9004,0.81348,0.37825,0.34636,0.56738,0.83171,0.56738,1.456,0,0.71094-0.28255,1.2738-0.84765,1.6885-0.56055,0.41471-1.333,0.62207-2.3174,0.62207-0.41015,0-0.83854-0.041-1.2852-0.12305-0.44206-0.0775-0.90918-0.19596-1.4014-0.35547v-1.2988c0.46484,0.24153,0.92285,0.42383,1.374,0.54687,0.45117,0.11849,0.89779,0.17774,1.3398,0.17774,0.59244,0,1.0482-0.10026,1.3672-0.30079,0.319-0.20507,0.47851-0.49218,0.47851-0.86132,0-0.3418-0.11621-0.60384-0.34863-0.78614-0.22787-0.18228-0.73145-0.35774-1.5107-0.52636l-0.4375-0.10254c-0.7793-0.16406-1.3421-0.41471-1.6885-0.75196-0.34635-0.34179-0.51953-0.80891-0.51953-1.4014,0-0.72005,0.25521-1.276,0.76562-1.668,0.51042-0.39192,1.235-0.58788,2.1738-0.58789,0.46484,0.00001,0.90234,0.0342,1.3125,0.10254,0.41015,0.0684,0.78841,0.1709,1.1348,0.30761"/>
  <path id="path3827" d="m297.07,185.39,1.2578,0,0,7.6562-1.2578,0,0-7.6562m0-2.9805,1.2578,0,0,1.5928-1.2578,0,0-1.5928"/>
  <path id="path3829" d="m307.31,188.43,0,4.6211-1.2578,0,0-4.5801c-0.00001-0.7246-0.14128-1.2669-0.42383-1.627-0.28256-0.36002-0.70639-0.54004-1.2715-0.54004-0.67904,0-1.2145,0.21648-1.6064,0.64941-0.39193,0.43295-0.58789,1.0231-0.58789,1.7705v4.3272h-1.2646v-7.6562h1.2646v1.1894c0.30078-0.46028,0.65397-0.80435,1.0596-1.0322,0.41015-0.22785,0.88183-0.34178,1.415-0.34179,0.87955,0.00001,1.5449,0.27344,1.9961,0.82031,0.45117,0.54232,0.67675,1.3421,0.67676,2.3994"/>
  <path id="path3831" d="m314.87,189.13c-0.00001-0.91146-0.18914-1.6178-0.56739-2.1191-0.3737-0.5013-0.90007-0.75195-1.5791-0.75196-0.67448,0.00001-1.2008,0.25066-1.5791,0.75196-0.3737,0.5013-0.56055,1.2077-0.56055,2.1191,0,0.9069,0.18685,1.611,0.56055,2.1123,0.37825,0.5013,0.90462,0.75195,1.5791,0.75195,0.67903,0,1.2054-0.25065,1.5791-0.75195,0.37825-0.5013,0.56738-1.2054,0.56739-2.1123m1.2578,2.9668c-0.00001,1.3034-0.2894,2.2718-0.86816,2.9053-0.57879,0.63801-1.4652,0.95702-2.6592,0.95703-0.44207-0.00001-0.85906-0.0342-1.251-0.10254-0.39193-0.0638-0.77246-0.16407-1.1416-0.30078v-1.2236c0.36914,0.20052,0.73372,0.34864,1.0938,0.44434,0.36002,0.0957,0.72688,0.14355,1.1006,0.14356,0.82487-0.00001,1.4424-0.21648,1.8525-0.64942,0.41015-0.42839,0.61523-1.0778,0.61524-1.9482v-0.62207c-0.25977,0.45117-0.59246,0.78841-0.99805,1.0117-0.4056,0.2233-0.89095,0.33496-1.456,0.33496-0.93881,0-1.6953-0.35775-2.2695-1.0732-0.57422-0.7155-0.86132-1.6634-0.86132-2.8438,0-1.1849,0.2871-2.1351,0.86132-2.8506,0.57422-0.71549,1.3307-1.0732,2.2695-1.0732,0.5651,0.00001,1.0504,0.11166,1.456,0.33496,0.40559,0.22331,0.73828,0.56055,0.99805,1.0117v-1.1621h1.2578v6.706"/>
 </g>
</svg>
